USFL
nRows=230
nColumns=2
inDegrees=yes
endheader
time	soleus_r	
6.81956	 33.753657	
6.85282	 33.685636	
6.88609	 33.643180	
6.91935	 33.697922	
6.95262	 33.731702	
6.98589	 33.722730	
7.01915	 33.737382	
7.05242	 33.736569	
7.08569	 33.656228	
7.11895	 33.617144	
7.15222	 33.600466	
7.18548	 33.592994	
7.21875	 33.564515	
7.25202	 33.551748	
7.28528	 33.511774	
7.31855	 33.499049	
7.35181	 33.461312	
7.38508	 33.462838	
7.41835	 33.458795	
7.45161	 33.438590	
7.48488	 33.441464	
7.51815	 33.468805	
7.55141	 33.426975	
7.58468	 33.452749	
7.61794	 33.367700	
7.65121	 33.458755	
7.68448	 33.468297	
7.71774	 33.354961	
7.75101	 33.438012	
7.78427	 33.597999	
7.81754	 33.489867	
7.85081	 33.480124	
7.88407	 33.542208	
7.91734	 33.540437	
7.9506	 33.505465	
7.98387	 33.492155	
8.01714	 33.509126	
8.0504	 33.525518	
8.08367	 33.509875	
8.11694	 33.502988	
8.1502	 33.529839	
8.18347	 33.498554	
8.21673	 33.470067	
8.25	 33.467929	
8.28327	 33.483131	
8.31653	 33.493954	
8.3498	 33.488796	
8.38306	 33.510108	
8.41633	 33.487085	
8.4496	 33.495702	
8.48286	 33.510958	
8.51613	 33.492292	
8.5494	 33.497796	
8.58266	 33.515628	
8.61593	 33.469123	
8.64919	 33.450433	
8.68246	 33.375586	
8.71573	 33.358054	
8.74899	 33.317682	
8.78226	 33.280436	
8.81552	 33.113356	
8.84879	 33.108707	
8.88206	 32.902037	
8.91532	 32.736442	
8.94859	 32.755284	
8.98185	 32.665341	
9.01512	 32.654718	
9.04839	 32.258478	
9.08165	 28.680183	
9.11492	 28.592287	
9.14819	 28.481172	
9.18145	 28.211174	
9.21472	 28.243233	
9.24798	 28.276250	
9.28125	 28.261691	
9.31452	 28.296039	
9.34778	 28.137140	
9.38105	 27.231989	
9.41431	 26.946564	
9.44758	 23.165143	
9.48085	 23.247462	
9.51411	 23.693808	
9.54738	 23.745361	
9.58065	 23.776037	
9.61391	 23.732109	
9.64718	 23.368573	
9.68044	 23.399308	
9.71371	 20.025680	
9.74698	 20.462470	
9.78024	 20.639573	
9.81351	 20.123463	
9.84677	 20.229138	
9.88004	 19.973192	
9.91331	 19.953007	
9.94657	 19.943647	
9.97984	 19.874563	
10.0131	 19.919301	
10.0464	 19.910470	
10.0796	 19.737332	
10.1129	 19.690539	
10.1462	 19.680205	
10.1794	 19.784071	
10.2127	 19.491944	
10.246	 19.567595	
10.2792	 19.866270	
10.3125	 18.855524	
10.3458	 17.713341	
10.379	 19.072742	
10.4123	 18.795717	
10.4456	 17.975553	
10.4788	 17.941684	
10.5121	 17.885098	
10.5454	 18.435152	
10.5786	 18.463217	
10.6119	 16.905882	
10.6452	 17.832875	
10.6784	 17.828009	
10.7117	 17.530252	
10.745	 17.770346	
10.7782	 17.616543	
10.8115	 17.870323	
10.8448	 18.314199	
10.878	 18.310087	
10.9113	 18.511876	
10.9446	 18.694059	
10.9778	 18.475566	
11.0111	 18.427928	
11.0444	 18.380998	
11.0776	 17.810215	
11.1109	 18.506145	
11.1442	 18.181018	
11.1774	 18.576315	
11.2107	 18.513816	
11.244	 18.551567	
11.2772	 18.588413	
11.3105	 18.581590	
11.3437	 18.627190	
11.377	 18.474311	
11.4103	 18.441370	
11.4435	 18.506882	
11.4768	 18.482761	
11.5101	 18.517278	
11.5433	 18.508522	
11.5766	 18.527928	
11.6099	 18.568734	
11.6431	 18.759650	
11.6764	 18.733238	
11.7097	 18.798640	
11.7429	 19.017517	
11.7762	 19.010643	
11.8095	 18.760102	
11.8427	 18.671640	
11.876	 18.607832	
11.9093	 18.642076	
11.9425	 18.717413	
11.9758	 18.751534	
12.0091	 18.803529	
12.0423	 18.870945	
12.0756	 18.827356	
12.1089	 18.934973	
12.1421	 19.003400	
12.1754	 18.811971	
12.2087	 18.766416	
12.2419	 18.754669	
12.2752	 18.769319	
12.3085	 18.634091	
12.3417	 18.408280	
12.375	 17.529567	
12.4083	 17.694450	
12.4415	 17.666200	
12.4748	 17.774672	
12.5081	 17.766968	
12.5413	 17.793642	
12.5746	 17.757563	
12.6079	 17.767432	
12.6411	 20.645975	
12.6744	 20.839698	
12.7077	 20.742672	
12.7409	 20.835407	
12.7742	 20.929975	
12.8075	 20.898358	
12.8407	 20.963628	
12.874	 20.957899	
12.9073	 21.037673	
12.9405	 21.038788	
12.9738	 21.060442	
13.0071	 21.263623	
13.0403	 21.274691	
13.0736	 21.304277	
13.1069	 23.199843	
13.1401	 23.071940	
13.1734	 22.825445	
13.2067	 22.877675	
13.2399	 22.930021	
13.2732	 23.266796	
13.3065	 23.155694	
13.3397	 23.248774	
13.373	 23.383528	
13.4062	 23.287129	
13.4395	 23.234310	
13.4728	 23.369837	
13.506	 23.570962	
13.5393	 23.767225	
13.5726	 24.075871	
13.6058	 24.031956	
13.6391	 24.211914	
13.6724	 24.294639	
13.7056	 24.248349	
13.7389	 24.263267	
13.7722	 24.360552	
13.8054	 24.369159	
13.8387	 24.360636	
13.872	 24.302266	
13.9052	 24.392182	
13.9385	 24.508575	
13.9718	 24.509063	
14.005	 24.584512	
14.0383	 24.598610	
14.0716	 24.619295	
14.1048	 24.653147	
14.1381	 24.822288	
14.1714	 24.797199	
14.2046	 24.993866	
14.2379	 25.016227	
14.2712	 25.098601	
14.3044	 25.182964	
14.3377	 25.248702	
14.371	 25.428358	
14.4042	 25.500100	
14.4375	 25.584206	
